<?xml version="1.0" encoding="UTF-8" standalone="no" ?>
<!DOCTYPE svg PUBLIC "-//W3C//DTD SVG 1.1//EN" "http://www.w3.org/Graphics/SVG/1.1/DTD/svg11.dtd">
<svg xmlns="http://www.w3.org/2000/svg" xmlns:xlink="http://www.w3.org/1999/xlink" version="1.1" width="1280" height="1024" viewBox="0 0 1280 1024" xml:space="preserve">
<desc>Created with Fabric.js 5.3.0</desc>
<defs>
</defs>
<g transform="matrix(1 0 0 1 640 512)" id="background-logo"  >
<linearGradient id="SVGID_80455_80460" gradientUnits="userSpaceOnUse" gradientTransform="matrix(1 0 0 1 -640 -512)"  x1="0" y1="0" x2="0" y2="1024">
<stop offset="0%" style="stop-color:rgb(180,236,81);stop-opacity: 1"/>
<stop offset="100%" style="stop-color:rgb(66,147,33);stop-opacity: 1"/>
</linearGradient>
<rect style="stroke: none; stroke-width: 0; stroke-dasharray: none; stroke-linecap: butt; stroke-dashoffset: 0; stroke-linejoin: miter; stroke-miterlimit: 4; fill: url(#SVGID_80455_80460); fill-rule: nonzero; opacity: 1;"  paint-order="stroke"  x="-640" y="-512" rx="0" ry="0" width="1280" height="1024" />
</g>
<g transform="matrix(1.9211538461538462 0 0 1.9211538461538462 298.60197368421046 432.4856131318318)" id="logo-logo"  >
<g style=""  paint-order="stroke"   >
		<g transform="matrix(0.996372018130248 0 0 0.996372018130248 0 -2.842171e-14)"  >
<g style=""  paint-order="stroke"   >
		<g transform="matrix(1 0 0 1 0 0)"  >
<path style="stroke: none; stroke-width: 1; stroke-dasharray: none; stroke-linecap: butt; stroke-dashoffset: 0; stroke-linejoin: miter; stroke-miterlimit: 4; fill: rgb(0,0,0); fill-rule: nonzero; opacity: 1;"  paint-order="stroke"  transform=" translate(-100, -100)" d="M 100 0 C 44.771525016920656 0 0 44.771525016920656 0 100 C 0 155.22847498307934 44.771525016920656 200 100 200 C 155.22847498307934 200 200 155.22847498307934 200 100 C 200 44.771525016920656 155.22847498307934 0 100 0 Z M 100 196 C 46.98066401624383 196 4 153.01933598375618 4 100 C 4 46.98066401624382 46.98066401624383 4 100 4 C 153.01933598375618 4 196 46.98066401624379 196 99.99999999999997 C 196.01326533773167 125.46944498981716 185.90486509450383 149.9002677451139 167.89993478073086 167.91457562675862 C 149.8950044669579 185.92888350840335 125.4694484443322 196.05000345451532 100 196.05000000000004 Z M 100 7 C 62.35892948159733 7.016187092396458 28.43436755309712 29.706280160901727 14.046574617508824 64.48906133544207 C -0.3412183180794699 99.27184250998243 7.641473954877824 139.29674537773892 34.27203091319039 165.8986980858277 C 60.90258787150296 192.5006507939165 100.93604655094379 200.44032406550502 135.70334521162354 186.01515870657698 C 170.47064387230333 171.58999334764894 193.12426542597862 137.64106617754638 193.10000000000002 100 C 193.08674273774355 75.32160452628673 183.27057218910613 51.65923870237178 165.81093458285625 34.21835473479668 C 148.35129697660633 16.777470767221573 124.67839546988432 6.986735612098698 99.99999999999999 7.000000000000014 Z M 180.74 117.16 C 181.47 112.28999999999999 183.67000000000002 105.72999999999999 188.31 104.66 C 189.07 112.13 185 116.73 180.78 117.15 Z M 172.65 117.86 C 175.78 118.97 179.14000000000001 124.07 175.65 131.43 C 173.38 129.47 170.63 124.76 172.69 117.85 Z M 168.12 143.86 C 165.84 140.10000000000002 165.63 134.66000000000003 169.27 128.98000000000002 C 172.76 131.31 174.06 137.8 168.16 143.86 Z M 174.58 104.86000000000001 C 177.97 105.55000000000001 181.38000000000002 110.26000000000002 179.52 117.24000000000001 C 176.21 115.47 173.65 111.17 174.62 104.88 Z M 175.13000000000002 93.71000000000001 C 177.41000000000003 93.91000000000001 181.57000000000002 96.71000000000001 180.93000000000004 104.08000000000001 C 178.1 103.12 175 99.79 175.17 93.73 Z M 186.44 92 C 188.56 99 184.91 103.08 182.27 104 C 181.87 99.53 182.53 93.66 186.44 92 Z M 176.44 78.25 C 179.31 79.75 183.82 86.09 180.60999999999999 93.87 C 177.34 91.78 174.69 86 176.44 78.2 Z M 100 20.71 C 134.36689360095878 20.713691647234253 164.82829889334786 42.832215696829074 175.46999999999997 75.50999999999993 L 175.2 75.61999999999999 C 174.88818317975418 75.766947098301 174.60402436848614 75.9665348347869 174.35999999999999 76.21 C 163.99405930433431 44.121969994561695 134.2041666870895 22.31047752033527 100.48387687075302 22.119556494144092 C 66.76358705441655 21.928635467952915 36.72862312142985 43.40140537880515 26 75.37 C 25.61606697364098 75.3974516185268 25.24176939123848 75.50293548265842 24.9 75.68 L 24.49 75.91000000000001 C 34.990285345129905 43.05611729611335 65.50895335219818 20.746085856699104 99.99999999999997 20.709999999999994 Z M 156.38 156 C 155.38 152.3 156.43 146.29 162.25 141.59 C 165 145 163.86 151.82 156.38 156 Z M 142.06 164.58 Z M 60.55 164.58 Z M 46.23 156 C 38.75 151.8 37.62 144.94 40.36 141.59 C 46.18 146.31 47.24 152.32 46.23 156 Z M 28 104.88 C 29 111.17 26.41 115.47 23.06 117.25999999999999 C 21.18 110.28 24.6 105.57 28 104.88 Z M 21.65 104.1 C 21.009999999999998 96.77 25.159999999999997 93.92999999999999 27.45 93.72999999999999 C 27.65 99.79 24.51 103.12 21.64 104.1 Z M 29.93 117.85 C 31.99 124.75999999999999 29.24 129.47 26.93 131.42 C 23.43 124.06 26.79 119 29.92 117.85 Z M 33.3 129 C 36.94 134.68 36.73 140.12 34.449999999999996 143.88 C 28.55 137.8 29.85 131.31 33.3 129 Z M 26.17 78.2 C 27.92 86 25.27 91.78 22 93.82 C 18.79 86 23.3 79.7 26.17 78.2 Z M 16.17 92 C 20.080000000000002 93.71 20.740000000000002 99.58 20.340000000000003 104 C 17.7 103 14.05 99 16.17 92 Z M 14.260000000000002 104.7 C 18.900000000000002 105.77 21.1 112.33 21.830000000000002 117.2 C 17.64 116.73 13.54 112.13 14.26 104.65 Z M 25.720000000000002 131.98000000000002 C 25.274467592608023 131.9900729786286 24.829017111162262 131.95658046122668 24.39 131.88000000000002 C 19.23 131.05 16.14 125.88000000000002 16.12 119.81000000000003 C 21.11 120.43 24.19 127.12 25.72 131.93 Z M 19.470000000000002 134.57000000000002 C 24.880000000000003 133.92000000000002 30.470000000000002 140.15000000000003 33.67 144.51000000000002 C 28.79 146.51 21.63 142.83 19.47 134.52 Z M 29.230000000000004 149.95000000000002 C 34.59 148.25000000000003 41.31 153.39000000000001 45.34 157.25000000000003 C 41.07 159.92 33.39 158.18 29.23 149.9 Z M 56 167.56 C 50.7 170.76 44.47 168.56 39.82 163.63 C 44.51 160.45 52.26 163.63 57.22 166.63 C 56.8477617408528 166.9827370464114 56.43875471053201 167.29452109411494 56 167.56 Z M 57.76 164.45 C 57.73913762709167 164.95446819021024 57.67557703557941 165.4562623337281 57.57 165.95 C 49.03 161.26999999999998 48.94 154.41 50.79 151.48999999999998 C 55.19 154.75 58 158.94 57.71 164.45 Z M 100 179.38 C 85.7401547348011 179.40026851579225 71.74110901580313 175.55752873807668 59.49000000000001 168.26 C 59.6421884625951 168.03895372932777 59.76018113890248 167.79622593806687 59.84 167.54 C 59.92631608207358 167.40897489327722 60.00317772636634 167.27196065779881 60.07 167.13 C 85.4756773481421 182.2418900361712 117.23515917834905 181.71940282594966 142.13000000000002 165.77999999999997 C 142.16366868220902 166.0626718488874 142.21375329061578 166.34314565596534 142.28 166.62 C 142.32279982261164 166.77679675933342 142.3762575212137 166.9304876428143 142.44 167.08 C 129.75310930899343 175.137433508392 115.02926543406221 179.40471154000494 100 179.38 Z M 144.86 164.45 C 144.56 158.94 147.38000000000002 154.75 151.86 151.45 C 153.71 154.36999999999998 153.62 161.23 145.08 165.91 C 144.97999401697933 165.42910449480385 144.91979025784386 164.94078511514945 144.9 164.45 Z M 146.61 167.56 C 146.17717615339652 167.30566894404 145.7717027981758 167.00742821168757 145.4 166.67000000000002 C 150.4 163.67000000000002 158.11 160.45000000000002 162.8 163.67000000000002 C 158.19 168.56 152 170.76 146.65 167.56 Z M 157.23000000000002 157.2 C 161.23000000000002 153.33999999999997 167.98000000000002 148.2 173.34000000000003 149.89999999999998 C 169.22 158.18 161.54 159.92 157.27 157.2 Z M 168.9 144.45999999999998 C 172.12 140.09999999999997 177.69 133.86999999999998 183.1 134.51999999999998 C 181 142.83 173.82 146.51 168.94 144.46 Z M 178.18 131.82999999999998 C 177.74098288883775 131.90658046122664 177.295532407392 131.94007297862856 176.85 131.92999999999998 C 178.38 127.11999999999998 181.46 120.42999999999998 186.44 119.75999999999998 C 186.47 125.81 183.38 131 178.22 131.83 Z" stroke-linecap="round" />
</g>
</g>
</g>
		<g transform="matrix(0.1372984806174535 0 0 0.1372984806174535 1.3094008516989106 -52.45214266179448)"  >
<g style=""  paint-order="stroke"   >
		<g transform="matrix(1 0 0 1 0 0)"  >
<polygon style="stroke: none; stroke-width: 1; stroke-dasharray: none; stroke-linecap: butt; stroke-dashoffset: 0; stroke-linejoin: miter; stroke-miterlimit: 4; fill: rgb(55,225,78); fill-rule: nonzero; opacity: 1;"  paint-order="stroke"  points="100,-22.430000000000007 30.900000000000006,-32.46 0,-95 -30.900000000000006,-32.46 -100,-22.430000000000007 -50,26.260000000000005 -61.8,95 0,62.55000000000001 61.80000000000001,95 50,26.260000000000005 100,-22.430000000000007 " />
</g>
</g>
</g>
		<g transform="matrix(0.1372984806174535 0 0 0.1372984806174535 -1.4603550106136822 -52.45214266179448)"  >
<g style=""  paint-order="stroke"   >
		<g transform="matrix(1 0 0 1 0 0)"  >
<linearGradient id="SVGID_80459" gradientUnits="userSpaceOnUse" gradientTransform="matrix(1 0 0 1 -100 -95)"  x1="0" y1="0" x2="0" y2="190">
<stop offset="0%" style="stop-color:rgb(180,236,81);stop-opacity: 1"/>
<stop offset="100%" style="stop-color:rgb(66,147,33);stop-opacity: 1"/>
</linearGradient>
<polygon style="stroke: none; stroke-width: 1; stroke-dasharray: none; stroke-linecap: butt; stroke-dashoffset: 0; stroke-linejoin: miter; stroke-miterlimit: 4; fill: url(#SVGID_80459); fill-rule: nonzero; opacity: 1;"  paint-order="stroke"  points="100,-22.430000000000007 30.900000000000006,-32.46 0,-95 -30.900000000000006,-32.46 -100,-22.430000000000007 -50,26.260000000000005 -61.8,95 0,62.55000000000001 61.80000000000001,95 50,26.260000000000005 100,-22.430000000000007 " />
</g>
</g>
</g>
</g>
</g>
<g transform="matrix(1.9211538461538462 0 0 1.9211538461538462 848.0725671052631 390.0443631332032)" id="text-logo"  >
<g style=""  paint-order="stroke"   >
		<g transform="matrix(1 0 0 1 0 0)" id="text-logo-path-0"  >
<path style="stroke: rgb(255,255,255); stroke-width: 0; stroke-dasharray: none; stroke-linecap: butt; stroke-dashoffset: 0; stroke-linejoin: miter; stroke-miterlimit: 4; fill: rgb(255,255,255); fill-rule: nonzero; opacity: 1;"  paint-order="stroke"  transform=" translate(-154.28000000000003, 24.849999999999998)" d="M 17.96 0.71 C 27.34 0.71 35.5 -4.69 35.5 -12.92 C 35.5 -19.88 32.16 -23.29 23.57 -27.83 C 15.27 -32.23 12.35 -35.15 12.35 -39.26 C 12.35 -43.59 15.19 -47.57 20.02 -47.57 C 25.21 -47.57 25.99 -44.94 24.92 -43.31 C 24 -41.96 23.5 -40.75 23.5 -39.26 C 23.5 -36 26.13 -33.44 29.39 -33.44 C 32.66 -33.44 35.22 -36 35.22 -39.76 C 35.22 -45.72 30.25 -50.41 20.24 -50.41 C 12.5 -50.41 3.34 -46.93 3.34 -35.5 C 3.34 -27.9 9.8 -23 16.54 -19.53 C 24.21 -15.55 26.7 -12.92 26.7 -9.16 C 26.7 -4.47 22.22 -2.13 17.11 -2.13 C 12.43 -2.13 7.81 -4.54 4.69 -9.16 L 2.34 -7.03 C 6.18 -1.99 11.01 0.71 17.96 0.71 Z M 50.84 -19.24 L 58.86 -19.24 C 72.7 -19.24 79.95 -23.79 79.95 -34.51 C 79.95 -44.73 73.13 -49.7 58.86 -49.7 L 50.84 -49.7 L 50.84 -46.86 L 58.86 -46.86 C 65.46 -46.86 69.3 -43.17 69.3 -34.51 C 69.3 -26.13 65.75 -22.08 58.86 -22.08 L 50.84 -22.08 Z M 53.25 0 L 55.88 0 C 56.02 0 56.23 -0.07 56.23 -0.36 C 56.23 -0.64 56.02 -0.71 55.88 -0.71 C 54.67 -0.71 53.32 -1.56 53.32 -3.55 L 53.32 -49.7 L 43.45 -49.7 L 40.83 -49.7 C 40.68 -49.7 40.47 -49.63 40.47 -49.35 C 40.47 -49.06 40.68 -48.99 40.83 -48.99 C 42.03 -48.99 43.38 -48.14 43.38 -46.15 L 43.38 -3.55 C 43.38 -1.56 42.03 -0.71 40.83 -0.71 C 40.68 -0.71 40.47 -0.64 40.47 -0.36 C 40.47 -0.07 40.68 0 40.83 0 L 43.45 0 Z M 96.35 0 L 96.35 -49.7 L 86.48 -49.7 L 83.85 -49.7 C 83.71 -49.7 83.5 -49.63 83.5 -49.35 C 83.5 -49.06 83.71 -48.99 83.85 -48.99 C 85.06 -48.99 86.41 -48.14 86.41 -46.15 L 86.41 -3.55 C 86.41 -1.56 85.06 -0.71 83.85 -0.71 C 83.71 -0.71 83.5 -0.64 83.5 -0.36 C 83.5 -0.07 83.71 0 83.85 0 L 86.48 0 Z M 93.86 0 L 117.43 0 L 117.43 -2.77 L 117.43 -5.4 C 117.43 -5.54 117.36 -5.75 117.08 -5.75 C 116.8 -5.75 116.72 -5.54 116.72 -5.4 C 116.72 -4.19 115.87 -2.84 113.88 -2.84 L 93.86 -2.84 Z M 93.86 -24.92 L 105.36 -24.92 C 107.35 -24.92 108.2 -23.57 108.2 -22.37 C 108.2 -22.22 108.28 -22.01 108.56 -22.01 C 108.84 -22.01 108.91 -22.22 108.91 -22.37 L 108.91 -24.99 L 108.91 -27.69 L 108.91 -30.32 C 108.91 -30.46 108.84 -30.67 108.56 -30.67 C 108.28 -30.67 108.2 -30.46 108.2 -30.32 C 108.2 -29.11 107.35 -27.76 105.36 -27.76 L 93.86 -27.76 Z M 93.86 -46.86 L 112.46 -46.86 C 114.45 -46.86 115.3 -45.51 115.3 -44.3 C 115.3 -44.16 115.38 -43.95 115.66 -43.95 C 115.94 -43.95 116.01 -44.16 116.01 -44.3 L 116.01 -46.93 L 116.01 -49.7 L 93.86 -49.7 Z M 152.44 0 L 157.34 0 L 157.48 -10.58 L 133.98 -49.7 L 122.62 -49.7 Z M 126.1 0 L 128.72 0 C 128.87 0 129.08 -0.07 129.08 -0.36 C 129.08 -0.64 128.87 -0.71 128.72 -0.71 C 127.52 -0.71 126.17 -1.56 126.17 -3.55 L 126.17 -49.7 L 123.4 -49.7 L 120.77 -49.7 C 120.63 -49.7 120.42 -49.63 120.42 -49.35 C 120.42 -49.06 120.63 -48.99 120.77 -48.99 C 121.98 -48.99 123.33 -48.14 123.33 -46.15 L 123.33 -3.55 C 123.33 -1.56 121.98 -0.71 120.77 -0.71 C 120.63 -0.71 120.42 -0.64 120.42 -0.36 C 120.42 -0.07 120.63 0 120.77 0 L 123.4 0 Z M 155.28 -46.15 L 155.28 0 L 158.12 0 L 158.12 -46.15 C 158.12 -48.14 159.47 -48.99 160.67 -48.99 C 160.82 -48.99 161.03 -49.06 161.03 -49.35 C 161.03 -49.63 160.82 -49.7 160.67 -49.7 L 158.05 -49.7 L 155.35 -49.7 L 152.72 -49.7 C 152.58 -49.7 152.37 -49.63 152.37 -49.35 C 152.37 -49.06 152.58 -48.99 152.72 -48.99 C 153.93 -48.99 155.28 -48.14 155.28 -46.15 Z M 173.24 0 L 181.26 0 C 194.82 0 203.77 -9.3 203.77 -24.92 C 203.77 -39.9 195.39 -49.7 181.26 -49.7 L 173.24 -49.7 L 173.24 -46.86 L 181.26 -46.86 C 189 -46.86 193.12 -39.76 193.12 -24.92 C 193.12 -10.58 189.29 -2.84 181.26 -2.84 L 173.24 -2.84 Z M 175.73 0 L 175.73 -49.7 L 165.86 -49.7 L 163.23 -49.7 C 163.09 -49.7 162.87 -49.63 162.87 -49.35 C 162.87 -49.06 163.09 -48.99 163.23 -48.99 C 164.44 -48.99 165.79 -48.14 165.79 -46.15 L 165.79 -3.55 C 165.79 -1.56 164.44 -0.71 163.23 -0.71 C 163.09 -0.71 162.87 -0.64 162.87 -0.36 C 162.87 -0.07 163.09 0 163.23 0 L 165.86 0 Z M 221.24 0 L 223.86 0 C 224.01 0 224.22 -0.07 224.22 -0.36 C 224.22 -0.64 224.01 -0.71 223.86 -0.71 C 222.66 -0.71 221.31 -1.56 221.31 -3.55 L 221.31 -46.15 C 221.31 -48.14 222.66 -48.99 223.86 -48.99 C 224.01 -48.99 224.22 -49.06 224.22 -49.35 C 224.22 -49.63 224.01 -49.7 223.86 -49.7 L 221.24 -49.7 L 211.44 -49.7 L 208.81 -49.7 C 208.67 -49.7 208.46 -49.63 208.46 -49.35 C 208.46 -49.06 208.67 -48.99 208.81 -48.99 C 210.02 -48.99 211.37 -48.14 211.37 -46.15 L 211.37 -3.55 C 211.37 -1.56 210.02 -0.71 208.81 -0.71 C 208.67 -0.71 208.46 -0.64 208.46 -0.36 C 208.46 -0.07 208.67 0 208.81 0 L 211.44 0 Z M 240.55 0 L 243.18 0 C 243.32 0 243.53 -0.07 243.53 -0.36 C 243.53 -0.64 243.32 -0.71 243.18 -0.71 C 241.97 -0.71 240.62 -1.56 240.62 -3.55 L 240.62 -49.7 L 230.75 -49.7 L 228.12 -49.7 C 227.98 -49.7 227.77 -49.63 227.77 -49.35 C 227.77 -49.06 227.98 -48.99 228.12 -48.99 C 229.33 -48.99 230.68 -48.14 230.68 -46.15 L 230.68 -3.55 C 230.68 -1.56 229.33 -0.71 228.12 -0.71 C 227.98 -0.71 227.77 -0.64 227.77 -0.36 C 227.77 -0.07 227.98 0 228.12 0 L 230.75 0 Z M 238.13 -22.79 L 249.64 -22.79 C 251.62 -22.79 252.48 -21.44 252.48 -20.24 C 252.48 -20.09 252.55 -19.88 252.83 -19.88 C 253.12 -19.88 253.19 -20.09 253.19 -20.24 L 253.19 -22.86 L 253.19 -25.56 L 253.19 -28.19 C 253.19 -28.33 253.12 -28.54 252.83 -28.54 C 252.55 -28.54 252.48 -28.33 252.48 -28.19 C 252.48 -26.98 251.62 -25.63 249.64 -25.63 L 238.13 -25.63 Z M 238.13 -46.86 L 256.74 -46.86 C 258.72 -46.86 259.58 -45.51 259.58 -44.3 C 259.58 -44.16 259.65 -43.95 259.93 -43.95 C 260.22 -43.95 260.29 -44.16 260.29 -44.3 L 260.29 -46.93 L 260.29 -49.7 L 238.13 -49.7 Z M 267.95 -46.51 L 280.31 -21.02 L 289.82 -23.15 L 278.6 -46.51 C 277.75 -48.28 278.39 -48.99 279.6 -48.99 C 279.74 -48.99 279.95 -49.06 279.95 -49.35 C 279.95 -49.63 279.74 -49.7 279.6 -49.7 L 276.97 -49.7 L 266.46 -49.7 L 263.84 -49.7 C 263.69 -49.7 263.48 -49.63 263.48 -49.35 C 263.48 -49.06 263.69 -48.99 263.84 -48.99 C 265.04 -48.99 267.1 -48.28 267.95 -46.51 Z M 289.75 0 L 292.38 0 C 292.52 0 292.73 -0.07 292.73 -0.36 C 292.73 -0.64 292.52 -0.71 292.38 -0.71 C 291.17 -0.71 289.82 -1.56 289.82 -3.55 L 289.82 -23.15 L 279.88 -23.15 L 279.88 -3.55 C 279.88 -1.56 278.53 -0.71 277.33 -0.71 C 277.18 -0.71 276.97 -0.64 276.97 -0.36 C 276.97 -0.07 277.18 0 277.33 0 L 279.95 0 Z M 289.4 -21.02 L 301.75 -46.51 C 302.6 -48.28 304.66 -48.99 305.87 -48.99 C 306.01 -48.99 306.22 -49.06 306.22 -49.35 C 306.22 -49.63 306.01 -49.7 305.87 -49.7 L 303.24 -49.7 L 299.83 -49.7 L 297.21 -49.7 C 297.06 -49.7 296.85 -49.63 296.85 -49.35 C 296.85 -49.06 297.06 -48.99 297.21 -48.99 C 298.41 -48.99 299.05 -48.28 298.2 -46.51 L 286.98 -23.15 Z" stroke-linecap="round" />
</g>
</g>
</g>
<g transform="matrix(1.9211538461538462 0 0 1.9211538461538462 868.5171960853124 510.3872888643724)" id="tagline-75710e28-465e-4fa2-98a7-33268841d840-logo"  >
<g style=""  paint-order="stroke"   >
		<g transform="matrix(1 0 0 1 0 -13.58329999999998)" id="tagline-75710e28-465e-4fa2-98a7-33268841d840-logo-path-0"  >
<path style="stroke: none; stroke-width: 0; stroke-dasharray: none; stroke-linecap: butt; stroke-dashoffset: 0; stroke-linejoin: miter; stroke-miterlimit: 4; fill: rgb(0,0,0); fill-rule: nonzero; opacity: 1;"  paint-order="stroke"  transform=" translate(-171.73498260268408, 6.82)" d="M 9.57 -13.77 L 4.14 -6.12 L 4.14 -13.4 C 4.14 -14.83 4.86 -15.09 5.59 -15.4 L 0.48 -15.4 C 1.21 -15.09 1.94 -14.83 1.94 -13.4 L 1.94 -2 C 1.94 -0.57 1.21 -0.31 0.48 0 L 5.59 0 C 4.86 -0.31 4.14 -0.57 4.14 -2 L 4.14 -5.41 L 5.08 -6.73 L 8.51 -1.65 C 9.31 -0.48 8.91 -0.31 8.18 0 L 13.51 0 C 12.78 -0.31 11.75 -0.48 10.96 -1.67 L 6.36 -8.54 L 10.08 -13.77 C 10.91 -14.94 11.97 -15.09 12.69 -15.4 L 9.28 -15.4 C 10.01 -15.09 10.41 -14.94 9.57 -13.77 Z M 34.41 0 L 35.29 0 L 35.29 -13.4 C 35.29 -14.83 36.01 -15.09 36.74 -15.4 L 33.4 -15.4 C 34.12 -15.09 34.85 -14.83 34.85 -13.4 L 34.85 -3.37 L 26.93 -15.4 L 23.28 -15.4 C 24 -15.09 24.73 -14.83 24.73 -13.4 L 24.73 -2 C 24.73 -0.57 24 -0.31 23.28 0 L 26.62 0 C 25.89 -0.31 25.17 -0.57 25.17 -2 L 25.17 -14.06 Z M 53.86 0.2 C 58.04 0.2 61.18 -3.01 61.18 -7.72 C 61.18 -12.25 58.23 -15.62 53.86 -15.62 C 49.65 -15.62 46.51 -12.43 46.51 -7.72 C 46.51 -3.17 49.46 0.2 53.86 0.2 Z M 53.86 -0.24 C 50.84 -0.24 48.82 -3.41 48.82 -7.72 C 48.82 -12.17 50.97 -15.18 53.86 -15.18 C 56.85 -15.18 58.87 -12.01 58.87 -7.72 C 58.87 -3.28 56.72 -0.24 53.86 -0.24 Z M 78.19 -13.53 L 80.01 -8.91 L 78.03 -3.01 L 73.88 -13.6 C 73.39 -14.85 72.56 -15.4 71.24 -15.4 L 69.41 -15.4 C 70.14 -15.09 71.08 -14.87 71.59 -13.53 L 76.91 0 L 77.46 0 L 80.26 -8.29 L 83.51 0 L 84.06 0 L 88.59 -13.51 C 89.06 -14.85 89.96 -15.09 90.68 -15.4 L 87.34 -15.4 C 88.07 -15.09 88.62 -14.85 88.15 -13.51 L 84.63 -3.01 L 81.31 -11.48 L 81.99 -13.51 C 82.46 -14.85 83.36 -15.09 84.08 -15.4 L 80.74 -15.4 C 81.47 -15.09 82.02 -14.85 81.55 -13.51 L 81.07 -12.08 L 80.48 -13.6 C 79.99 -14.85 79.16 -15.4 77.84 -15.4 L 76.01 -15.4 C 76.74 -15.09 77.68 -14.87 78.19 -13.53 Z M 116.01 -13.62 L 119.72 -6.23 L 119.72 -2 C 119.72 -0.57 119 -0.31 118.27 0 L 123.38 0 C 122.65 -0.31 121.92 -0.57 121.92 -2 L 121.92 -6.05 L 125.73 -13.62 C 126.37 -14.89 127.36 -15.09 128.08 -15.4 L 124.63 -15.4 C 125.36 -15.09 125.82 -14.89 125.18 -13.62 L 121.79 -6.84 L 118.36 -13.73 C 117.79 -14.89 116.95 -15.4 115.65 -15.4 L 113.65 -15.4 C 114.38 -15.09 115.37 -14.89 116.01 -13.62 Z M 143.44 0.2 C 147.62 0.2 150.77 -3.01 150.77 -7.72 C 150.77 -12.25 147.82 -15.62 143.44 -15.62 C 139.24 -15.62 136.09 -12.43 136.09 -7.72 C 136.09 -3.17 139.04 0.2 143.44 0.2 Z M 143.44 -0.24 C 140.43 -0.24 138.4 -3.41 138.4 -7.72 C 138.4 -12.17 140.56 -15.18 143.44 -15.18 C 146.43 -15.18 148.46 -12.01 148.46 -7.72 C 148.46 -3.28 146.3 -0.24 143.44 -0.24 Z M 161.99 -13.4 L 161.99 -4.8 C 161.99 -1.78 164.01 0.31 167.97 0.31 C 171.12 0.31 172.99 -1.47 172.99 -4.8 L 172.99 -13.4 C 172.99 -14.83 173.71 -15.09 174.44 -15.4 L 171.09 -15.4 C 171.82 -15.09 172.55 -14.83 172.55 -13.4 L 172.55 -4.8 C 172.55 -1.74 170.85 -0.13 167.97 -0.13 C 165.51 -0.13 164.19 -1.76 164.19 -4.8 L 164.19 -13.4 C 164.19 -14.83 164.91 -15.09 165.64 -15.4 L 160.53 -15.4 C 161.26 -15.09 161.99 -14.83 161.99 -13.4 Z M 191.91 0 L 197.23 0 C 196.5 -0.31 195.47 -0.48 194.68 -1.67 L 191.44 -6.51 C 193.53 -7.5 195.23 -8.84 195.23 -11.18 C 195.23 -13.46 193.05 -15.4 189.57 -15.4 L 184.21 -15.4 C 184.93 -15.09 185.66 -14.83 185.66 -13.4 L 185.66 -2 C 185.66 -0.57 184.93 -0.31 184.21 0 L 189.31 0 C 188.58 -0.31 187.86 -0.57 187.86 -2 L 187.86 -5.1 L 189.51 -5.7 L 192.24 -1.65 C 193.03 -0.48 192.63 -0.31 191.91 0 Z M 187.86 -5.79 L 187.86 -14.96 L 189.57 -14.96 C 191.62 -14.96 192.92 -13.51 192.92 -11.18 C 192.92 -7.77 190.52 -6.75 187.86 -5.79 Z M 227.55 0 L 228.25 0 L 233.53 -14.89 L 233.53 -2 C 233.53 -0.57 232.8 -0.31 232.08 0 L 237.18 0 C 236.46 -0.31 235.73 -0.57 235.73 -2 L 235.73 -13.4 C 235.73 -14.83 236.46 -15.09 237.18 -15.4 L 233.27 -15.4 L 228.73 -2.62 L 223.41 -15.4 L 220.2 -15.4 C 220.92 -15.09 221.65 -14.83 221.65 -13.4 L 221.65 -2 C 221.65 -0.57 220.92 -0.31 220.2 0 L 223.54 0 C 222.82 -0.31 222.09 -0.57 222.09 -2 L 222.09 -13.27 Z M 254.3 0.2 C 258.48 0.2 261.62 -3.01 261.62 -7.72 C 261.62 -12.25 258.68 -15.62 254.3 -15.62 C 250.1 -15.62 246.95 -12.43 246.95 -7.72 C 246.95 -3.17 249.9 0.2 254.3 0.2 Z M 254.3 -0.24 C 251.28 -0.24 249.26 -3.41 249.26 -7.72 C 249.26 -12.17 251.42 -15.18 254.3 -15.18 C 257.29 -15.18 259.31 -12.01 259.31 -7.72 C 259.31 -3.28 257.16 -0.24 254.3 -0.24 Z M 282.52 0 L 283.4 0 L 283.4 -13.4 C 283.4 -14.83 284.13 -15.09 284.86 -15.4 L 281.51 -15.4 C 282.24 -15.09 282.96 -14.83 282.96 -13.4 L 282.96 -3.37 L 275.04 -15.4 L 271.39 -15.4 C 272.12 -15.09 272.84 -14.83 272.84 -13.4 L 272.84 -2 C 272.84 -0.57 272.12 -0.31 271.39 0 L 274.74 0 C 274.01 -0.31 273.28 -0.57 273.28 -2 L 273.28 -14.06 Z M 294.62 0 L 305.16 0 L 306.42 -2.51 C 305.47 -1.69 304.46 -0.44 302.17 -0.44 L 298.28 -0.44 L 298.28 -7.48 L 301.18 -7.48 C 302.61 -7.48 302.87 -6.75 303.18 -6.03 L 303.18 -9.37 C 302.87 -8.65 302.61 -7.92 301.18 -7.92 L 298.28 -7.92 L 298.28 -14.96 L 302.39 -14.96 C 304.52 -14.96 304.92 -13.88 305.38 -12.78 L 305.38 -15.4 L 294.62 -15.4 C 295.35 -15.09 296.08 -14.83 296.08 -13.4 L 296.08 -2 C 296.08 -0.57 295.35 -0.31 294.62 0 Z M 318.54 -13.62 L 322.26 -6.23 L 322.26 -2 C 322.26 -0.57 321.53 -0.31 320.8 0 L 325.91 0 C 325.18 -0.31 324.46 -0.57 324.46 -2 L 324.46 -6.05 L 328.26 -13.62 C 328.9 -14.89 329.89 -15.09 330.62 -15.4 L 327.16 -15.4 C 327.89 -15.09 328.35 -14.89 327.71 -13.62 L 324.32 -6.84 L 320.89 -13.73 C 320.32 -14.89 319.48 -15.4 318.19 -15.4 L 316.18 -15.4 C 316.91 -15.09 317.9 -14.89 318.54 -13.62 Z M 340.87 1.76 L 341 1.98 C 342.41 1.19 342.91 0.09 342.98 -0.66 C 343.07 -1.72 342.54 -2.35 341.81 -2.42 C 341.11 -2.49 340.45 -1.94 340.38 -1.21 C 340.34 -0.73 340.56 -0.29 341.11 0.11 C 341.81 0.64 341.53 1.3 340.87 1.76 Z" stroke-linecap="round" />
</g>
		<g transform="matrix(1 0 0 1 6.5622066370114 14.418300000000045)" id="tagline-75710e28-465e-4fa2-98a7-33268841d840-logo-path-1"  >
<path style="stroke: none; stroke-width: 0; stroke-dasharray: none; stroke-linecap: butt; stroke-dashoffset: 0; stroke-linejoin: miter; stroke-miterlimit: 4; fill: rgb(0,0,0); fill-rule: nonzero; opacity: 1;"  paint-order="stroke"  transform=" translate(-139.51999999999998, 7.654999999999999)" d="M 7.83 0.2 C 12.01 0.2 15.16 -3.01 15.16 -7.72 C 15.16 -12.25 12.21 -15.62 7.83 -15.62 C 3.63 -15.62 0.48 -12.43 0.48 -7.72 C 0.48 -3.17 3.43 0.2 7.83 0.2 Z M 7.83 -0.24 C 4.82 -0.24 2.79 -3.41 2.79 -7.72 C 2.79 -12.17 4.95 -15.18 7.83 -15.18 C 10.82 -15.18 12.85 -12.01 12.85 -7.72 C 12.85 -3.28 10.69 -0.24 7.83 -0.24 Z M 32.16 -13.53 L 33.99 -8.91 L 32.01 -3.01 L 27.85 -13.6 C 27.37 -14.85 26.53 -15.4 25.21 -15.4 L 23.39 -15.4 C 24.11 -15.09 25.06 -14.87 25.56 -13.53 L 30.89 0 L 31.44 0 L 34.23 -8.29 L 37.49 0 L 38.04 0 L 42.57 -13.51 C 43.03 -14.85 43.93 -15.09 44.66 -15.4 L 41.32 -15.4 C 42.04 -15.09 42.59 -14.85 42.13 -13.51 L 38.61 -3.01 L 35.29 -11.48 L 35.97 -13.51 C 36.43 -14.85 37.33 -15.09 38.06 -15.4 L 34.72 -15.4 C 35.44 -15.09 35.99 -14.85 35.53 -13.51 L 35.05 -12.08 L 34.45 -13.6 C 33.97 -14.85 33.13 -15.4 31.81 -15.4 L 29.99 -15.4 C 30.71 -15.09 31.66 -14.87 32.16 -13.53 Z M 65.56 0 L 66.44 0 L 66.44 -13.4 C 66.44 -14.83 67.17 -15.09 67.89 -15.4 L 64.55 -15.4 C 65.27 -15.09 66 -14.83 66 -13.4 L 66 -3.37 L 58.08 -15.4 L 54.43 -15.4 C 55.15 -15.09 55.88 -14.83 55.88 -13.4 L 55.88 -2 C 55.88 -0.57 55.15 -0.31 54.43 0 L 57.77 0 C 57.05 -0.31 56.32 -0.57 56.32 -2 L 56.32 -14.06 Z M 93.21 -13.62 L 96.93 -6.23 L 96.93 -2 C 96.93 -0.57 96.21 -0.31 95.48 0 L 100.58 0 C 99.86 -0.31 99.13 -0.57 99.13 -2 L 99.13 -6.05 L 102.94 -13.62 C 103.58 -14.89 104.57 -15.09 105.29 -15.4 L 101.84 -15.4 C 102.56 -15.09 103.03 -14.89 102.39 -13.62 L 99 -6.84 L 95.57 -13.73 C 95 -14.89 94.16 -15.4 92.86 -15.4 L 90.86 -15.4 C 91.59 -15.09 92.58 -14.89 93.21 -13.62 Z M 120.65 0.2 C 124.83 0.2 127.97 -3.01 127.97 -7.72 C 127.97 -12.25 125.03 -15.62 120.65 -15.62 C 116.45 -15.62 113.3 -12.43 113.3 -7.72 C 113.3 -3.17 116.25 0.2 120.65 0.2 Z M 120.65 -0.24 C 117.63 -0.24 115.61 -3.41 115.61 -7.72 C 115.61 -12.17 117.77 -15.18 120.65 -15.18 C 123.64 -15.18 125.66 -12.01 125.66 -7.72 C 125.66 -3.28 123.51 -0.24 120.65 -0.24 Z M 139.19 -13.4 L 139.19 -4.8 C 139.19 -1.78 141.22 0.31 145.18 0.31 C 148.32 0.31 150.19 -1.47 150.19 -4.8 L 150.19 -13.4 C 150.19 -14.83 150.92 -15.09 151.65 -15.4 L 148.3 -15.4 C 149.03 -15.09 149.75 -14.83 149.75 -13.4 L 149.75 -4.8 C 149.75 -1.74 148.06 -0.13 145.18 -0.13 C 142.71 -0.13 141.39 -1.76 141.39 -4.8 L 141.39 -13.4 C 141.39 -14.83 142.12 -15.09 142.85 -15.4 L 137.74 -15.4 C 138.47 -15.09 139.19 -14.83 139.19 -13.4 Z M 169.11 0 L 174.44 0 C 173.71 -0.31 172.68 -0.48 171.89 -1.67 L 168.65 -6.51 C 170.74 -7.5 172.44 -8.84 172.44 -11.18 C 172.44 -13.46 170.26 -15.4 166.78 -15.4 L 161.41 -15.4 C 162.14 -15.09 162.87 -14.83 162.87 -13.4 L 162.87 -2 C 162.87 -0.57 162.14 -0.31 161.41 0 L 166.52 0 C 165.79 -0.31 165.07 -0.57 165.07 -2 L 165.07 -5.1 L 166.72 -5.7 L 169.44 -1.65 C 170.24 -0.48 169.84 -0.31 169.11 0 Z M 165.07 -5.79 L 165.07 -14.96 L 166.78 -14.96 C 168.83 -14.96 170.13 -13.51 170.13 -11.18 C 170.13 -7.77 167.73 -6.75 165.07 -5.79 Z M 197.41 0 L 207.94 0 L 209.2 -2.51 C 208.25 -1.69 207.24 -0.44 204.95 -0.44 L 201.06 -0.44 L 201.06 -13.4 C 201.06 -14.83 201.78 -15.09 202.51 -15.4 L 197.41 -15.4 C 198.13 -15.09 198.86 -14.83 198.86 -13.4 L 198.86 -2 C 198.86 -0.57 198.13 -0.31 197.41 0 Z M 218.97 0 L 224.07 0 C 223.34 -0.31 222.62 -0.57 222.62 -2 L 222.62 -13.4 C 222.62 -14.83 223.34 -15.09 224.07 -15.4 L 218.97 -15.4 C 219.69 -15.09 220.42 -14.83 220.42 -13.4 L 220.42 -2 C 220.42 -0.57 219.69 -0.31 218.97 0 Z M 233.84 0 L 238.94 0 C 238.22 -0.31 237.49 -0.57 237.49 -2 L 237.49 -7.48 L 240.39 -7.48 C 241.82 -7.48 242.09 -6.75 242.4 -6.03 L 242.4 -9.37 C 242.09 -8.65 241.82 -7.92 240.39 -7.92 L 237.49 -7.92 L 237.49 -14.96 L 241.6 -14.96 C 243.74 -14.96 244.13 -13.88 244.6 -12.78 L 244.6 -15.4 L 233.84 -15.4 C 234.56 -15.09 235.29 -14.83 235.29 -13.4 L 235.29 -2 C 235.29 -0.57 234.56 -0.31 233.84 0 Z M 254.36 0 L 264.9 0 L 266.16 -2.51 C 265.21 -1.69 264.2 -0.44 261.91 -0.44 L 258.02 -0.44 L 258.02 -7.48 L 260.92 -7.48 C 262.35 -7.48 262.61 -6.75 262.92 -6.03 L 262.92 -9.37 C 262.61 -8.65 262.35 -7.92 260.92 -7.92 L 258.02 -7.92 L 258.02 -14.96 L 262.13 -14.96 C 264.26 -14.96 264.66 -13.88 265.12 -12.78 L 265.12 -15.4 L 254.36 -15.4 C 255.09 -15.09 255.82 -14.83 255.82 -13.4 L 255.82 -2 C 255.82 -0.57 255.09 -0.31 254.36 0 Z M 277.24 0.22 C 277.97 0.22 278.56 -0.37 278.56 -1.1 C 278.56 -1.83 277.97 -2.42 277.24 -2.42 C 276.54 -2.42 275.92 -1.83 275.92 -1.1 C 275.92 -0.37 276.54 0.22 277.24 0.22 Z" stroke-linecap="round" />
</g>
</g>
</g>
<g transform="matrix(1.9211538461538462 0 0 1.9211538461538462 291.9766210094372 445.37791553980173)" id="tagline-979fc98d-13ec-43c6-9b67-b1a637391efc-logo"  >
<g style=""  paint-order="stroke"   >
		<g transform="matrix(1 0 0 1 0 0)" id="tagline-979fc98d-13ec-43c6-9b67-b1a637391efc-logo-path-0"  >
<filter id="SVGID_80458" y="-21.343543713767865%" height="142.68708742753574%" x="-26.213966187777384%" width="152.42793237555478%" >
	<feGaussianBlur in="SourceAlpha" stdDeviation="0"></feGaussianBlur>
	<feOffset dx="2.7279311564342716" dy="0.9093103854780905" result="oBlur" ></feOffset>
	<feFlood flood-color="rgb(55,225,78)" flood-opacity="1"/>
	<feComposite in2="oBlur" operator="in" />
	<feMerge>
		<feMergeNode></feMergeNode>
		<feMergeNode in="SourceGraphic"></feMergeNode>
	</feMerge>
</filter>
<path style="stroke: rgb(55,225,78); stroke-width: 1.818620770956181; stroke-dasharray: none; stroke-linecap: butt; stroke-dashoffset: 0; stroke-linejoin: miter; stroke-miterlimit: 4; fill: rgb(255,255,255); fill-rule: nonzero; opacity: 1;filter: url(#SVGID_80458);"  paint-order="stroke"  transform=" translate(-25.05, 32.9)" d="M 23.78 0.94 C 36.19 0.94 47 -6.2 47 -17.11 C 47 -26.32 42.58 -30.83 31.21 -36.85 C 20.21 -42.68 16.36 -46.53 16.36 -51.98 C 16.36 -57.72 20.12 -62.98 26.51 -62.98 C 33.37 -62.98 34.4 -59.5 32.99 -57.34 C 31.77 -55.55 31.11 -53.96 31.11 -51.98 C 31.11 -47.66 34.59 -44.27 38.92 -44.27 C 43.24 -44.27 46.62 -47.66 46.62 -52.64 C 46.62 -60.54 40.04 -66.74 26.79 -66.74 C 16.54 -66.74 4.42 -62.13 4.42 -47 C 4.42 -36.94 12.97 -30.46 21.9 -25.85 C 32.05 -20.59 35.34 -17.11 35.34 -12.13 C 35.34 -5.92 29.42 -2.82 22.65 -2.82 C 16.45 -2.82 10.34 -6.02 6.2 -12.13 L 3.1 -9.31 C 8.18 -2.63 14.57 0.94 23.78 0.94 Z" stroke-linecap="round" />
</g>
</g>
</g>
</svg>